<svg width="844" height="225" viewBox="0 0 844 225" fill="none" xmlns="http://www.w3.org/2000/svg">
<line x1="2.5" y1="1.09278e-07" x2="2.49999" y2="225" stroke="black" stroke-width="5"/>
<line x1="369.35" y1="1.09278e-07" x2="369.35" y2="225" stroke="black" stroke-width="5"/>
<line x1="124.783" y1="1.09278e-07" x2="124.783" y2="225" stroke="black" stroke-width="5"/>
<line x1="491.634" y1="1.09278e-07" x2="491.634" y2="225" stroke="black" stroke-width="5"/>
<line x1="63.6417" y1="1.09278e-07" x2="63.6417" y2="225" stroke="black" stroke-width="5"/>
<line x1="430.492" y1="1.09278e-07" x2="430.492" y2="225" stroke="black" stroke-width="5"/>
<line x1="185.925" y1="1.09278e-07" x2="185.925" y2="225" stroke="black" stroke-width="5"/>
<line x1="552.775" y1="1.09278e-07" x2="552.775" y2="225" stroke="black" stroke-width="5"/>
<line x1="308.208" y1="1.09278e-07" x2="308.208" y2="225" stroke="black" stroke-width="5"/>
<line x1="675.059" y1="1.09278e-07" x2="675.059" y2="225" stroke="black" stroke-width="5"/>
<line x1="788.85" y1="1.09278e-07" x2="788.85" y2="225" stroke="black" stroke-width="5"/>
<line x1="93.5142" y1="1.5299e-07" x2="93.5142" y2="225" stroke="black" stroke-width="7"/>
<line x1="460.364" y1="1.5299e-07" x2="460.364" y2="225" stroke="black" stroke-width="7"/>
<line x1="215.798" y1="1.5299e-07" x2="215.798" y2="225" stroke="black" stroke-width="7"/>
<line x1="582.648" y1="1.5299e-07" x2="582.648" y2="225" stroke="black" stroke-width="7"/>
<line x1="338.081" y1="1.5299e-07" x2="338.081" y2="225" stroke="black" stroke-width="7"/>
<line x1="704.931" y1="1.5299e-07" x2="704.931" y2="225" stroke="black" stroke-width="7"/>
<line x1="818.723" y1="1.5299e-07" x2="818.723" y2="225" stroke="black" stroke-width="7"/>
<line x1="13.3887" y1="6.55671e-08" x2="13.3887" y2="225" stroke="black" stroke-width="3"/>
<line x1="380.239" y1="6.55671e-08" x2="380.239" y2="225" stroke="black" stroke-width="3"/>
<line x1="135.672" y1="6.55671e-08" x2="135.672" y2="225" stroke="black" stroke-width="3"/>
<line x1="502.522" y1="6.55671e-08" x2="502.522" y2="225" stroke="black" stroke-width="3"/>
<line x1="257.955" y1="6.55671e-08" x2="257.955" y2="225" stroke="black" stroke-width="3"/>
<line x1="624.806" y1="6.55671e-08" x2="624.806" y2="225" stroke="black" stroke-width="3"/>
<line x1="738.597" y1="6.55671e-08" x2="738.597" y2="225" stroke="black" stroke-width="3"/>
<line x1="42.2611" y1="6.55671e-08" x2="42.2611" y2="225" stroke="black" stroke-width="3"/>
<line x1="409.111" y1="6.55671e-08" x2="409.111" y2="225" stroke="black" stroke-width="3"/>
<line x1="164.545" y1="6.55671e-08" x2="164.545" y2="225" stroke="black" stroke-width="3"/>
<line x1="531.395" y1="6.55671e-08" x2="531.395" y2="225" stroke="black" stroke-width="3"/>
<line x1="286.828" y1="6.55671e-08" x2="286.828" y2="225" stroke="black" stroke-width="3"/>
<line x1="653.678" y1="6.55671e-08" x2="653.678" y2="225" stroke="black" stroke-width="3"/>
<line x1="767.47" y1="6.55671e-08" x2="767.47" y2="225" stroke="black" stroke-width="3"/>
<line x1="77.9271" y1="6.55671e-08" x2="77.9271" y2="225" stroke="black" stroke-width="3"/>
<line x1="444.777" y1="6.55671e-08" x2="444.777" y2="225" stroke="black" stroke-width="3"/>
<line x1="200.211" y1="6.55671e-08" x2="200.211" y2="225" stroke="black" stroke-width="3"/>
<line x1="567.061" y1="6.55671e-08" x2="567.061" y2="225" stroke="black" stroke-width="3"/>
<line x1="322.494" y1="6.55671e-08" x2="322.494" y2="225" stroke="black" stroke-width="3"/>
<line x1="689.344" y1="6.55671e-08" x2="689.344" y2="225" stroke="black" stroke-width="3"/>
<line x1="803.136" y1="6.55671e-08" x2="803.136" y2="225" stroke="black" stroke-width="3"/>
<line x1="26.2773" y1="1.09278e-07" x2="26.2773" y2="225" stroke="black" stroke-width="5"/>
<line x1="393.128" y1="1.09278e-07" x2="393.128" y2="225" stroke="black" stroke-width="5"/>
<line x1="148.561" y1="1.09278e-07" x2="148.561" y2="225" stroke="black" stroke-width="5"/>
<line x1="515.411" y1="1.09278e-07" x2="515.411" y2="225" stroke="black" stroke-width="5"/>
<line x1="270.844" y1="1.09278e-07" x2="270.844" y2="225" stroke="black" stroke-width="5"/>
<line x1="637.694" y1="1.09278e-07" x2="637.694" y2="225" stroke="black" stroke-width="5"/>
<line x1="751.486" y1="1.09278e-07" x2="751.486" y2="225" stroke="black" stroke-width="5"/>
<line x1="54.1498" y1="6.55671e-08" x2="54.1498" y2="225" stroke="black" stroke-width="3"/>
<line x1="421" y1="6.55671e-08" x2="421" y2="225" stroke="black" stroke-width="3"/>
<line x1="176.433" y1="6.55671e-08" x2="176.433" y2="225" stroke="black" stroke-width="3"/>
<line x1="543.283" y1="6.55671e-08" x2="543.283" y2="225" stroke="black" stroke-width="3"/>
<line x1="298.717" y1="6.55671e-08" x2="298.717" y2="225" stroke="black" stroke-width="3"/>
<line x1="665.567" y1="6.55671e-08" x2="665.567" y2="225" stroke="black" stroke-width="3"/>
<line x1="779.358" y1="6.55671e-08" x2="779.358" y2="225" stroke="black" stroke-width="3"/>
<line x1="116.292" y1="1.09278e-07" x2="116.291" y2="225" stroke="black" stroke-width="5"/>
<line x1="483.142" y1="1.09278e-07" x2="483.142" y2="225" stroke="black" stroke-width="5"/>
<line x1="239.575" y1="1.5299e-07" x2="239.575" y2="225" stroke="black" stroke-width="7"/>
<line x1="606.425" y1="1.5299e-07" x2="606.425" y2="225" stroke="black" stroke-width="7"/>
<line x1="360.858" y1="1.09278e-07" x2="360.858" y2="225" stroke="black" stroke-width="5"/>
<line x1="727.708" y1="1.09278e-07" x2="727.708" y2="225" stroke="black" stroke-width="5"/>
<line x1="841.5" y1="1.09278e-07" x2="841.5" y2="225" stroke="black" stroke-width="5"/>
</svg>
